<svg data-v-0dd9719b="" version="1.0" xmlns="http://www.w3.org/2000/svg" xmlns:xlink="http://www.w3.org/1999/xlink" width="100%" height="100%" viewBox="0 0 340.000000 250.000000" preserveAspectRatio="xMidYMid meet" color-interpolation-filters="sRGB" style="margin: auto;"> <rect data-v-0dd9719b="" x="0" y="0" width="100%" height="100%" fill="#ffffff" fill-opacity="1" class="background"></rect> <rect data-v-0dd9719b="" x="0" y="0" width="100%" height="100%" fill="url(#watermark)" fill-opacity="1" class="watermarklayer"></rect> <g data-v-0dd9719b="" fill="#fcbd05" class="icon-text-wrapper icon-svg-group iconsvg" transform="translate(60.61000061035156,96.78727722167969)"><g class="iconsvg-imagesvg" transform="translate(0,0)"><g><rect fill="#fcbd05" fill-opacity="0" stroke-width="2" x="0" y="0" width="60" height="56.42544787699252" class="image-rect"></rect> <svg filter="url(#colors9659230684)" x="0" y="0" width="60" height="56.42544787699252" filtersec="colorsf9841670251" class="image-svg-svg primary" style="overflow: visible;"><svg xmlns="http://www.w3.org/2000/svg" viewBox="0.05905000000000005 -0.01916999999999991 102.08191 96.23834"><path d="M16.9 28.4c-.8-2-1.2-4.2-1.2-6.5 0-9.6 7.8-17.4 17.4-17.4 2.7 0 5.2.3 7.4 1.7l37.1 21.4m-31-12.8L9.5 36.3c-2.3 1.3-3.8 3.3-5.1 5.6-4.8 8.3-2 19 6.4 23.8 2 1.1 4.1 1.9 6.2 2.2m3-32.6v42.9c0 2.6.9 5 2.3 7.3 4.8 8.3 15.5 11.2 23.8 6.4 2-1.1 3.6-2.6 5-4.3m-26.6-19L61.6 90c2.3 1.3 4.8 1.7 7.4 1.7 9.6 0 17.4-7.8 17.4-17.4 0-2.3-.4-4.5-1.2-6.5M55.6 81.3l37.1-21.4c2.3-1.3 3.8-3.3 5.1-5.6 4.8-8.3 2-19-6.4-23.8-2-1.1-4.1-1.9-6.2-2.2m-3.1 32.5V18c0-2.6-.9-5-2.3-7.3C75 2.4 64.4-.5 56 4.3c-2 1.1-3.6 2.6-5 4.3m1 62.3l19.3-12.2-.9-22.8-20.3-10.6-19.2 12.2.9 22.8L52 70.9z" fill="none" stroke="#202121" stroke-width="4" stroke-miterlimit="10"></path></svg></svg> <defs><filter id="colors9659230684"><feColorMatrix type="matrix" values="0 0 0 0 0.984375  0 0 0 0 0.73828125  0 0 0 0 0.01953125  0 0 0 1 0" class="icon-fecolormatrix"></feColorMatrix></filter> <filter id="colorsf9841670251"><feColorMatrix type="matrix" values="0 0 0 0 0.99609375  0 0 0 0 0.99609375  0 0 0 0 0.99609375  0 0 0 1 0" class="icon-fecolormatrix"></feColorMatrix></filter> <filter id="colorsb988497836"><feColorMatrix type="matrix" values="0 0 0 0 0  0 0 0 0 0  0 0 0 0 0  0 0 0 1 0" class="icon-fecolormatrix"></feColorMatrix></filter></defs></g></g> <g transform="translate(67,4.877723693847656)"><g data-gra="path-name" fill-rule="" class="tp-name iconsvg-namesvg"><g transform="scale(1)"><g><path d="M19.57 0.78C30.48 0.78 36.79-3.45 36.79-11.77 36.79-18.79 33.02-21.64 29.05-23.21L29.05-23.46C32.95-25.22 35.55-27.95 35.55-33.67 35.55-41.8 29.51-45.89 19.57-45.89 9.36-45.89 3.45-41.8 3.45-33.67 3.45-27.69 5.79-25.16 9.23-23.46L9.23-23.21C5.79-21.64 2.21-18.91 2.21-11.83 2.21-3.45 8.58 0.78 19.57 0.78ZM19.57-27.69C15.93-27.69 14.11-29.51 14.11-32.37 14.11-35.49 16.25-36.66 19.57-36.66 22.88-36.66 24.89-35.3 24.89-32.37 24.89-29.51 23.21-27.69 19.57-27.69ZM19.57-8.84C15.6-8.84 13.46-10.08 13.46-13.2 13.46-16.64 15.93-18.53 19.57-18.53 23.01-18.53 25.61-16.64 25.61-13.2 25.61-10.08 23.46-8.84 19.57-8.84ZM55.97 0L68.38 0 68.38-45.11 58.83-45.11 45.05-42.38 45.05-31.98 55.97-34.13ZM95.03 0L107.45 0 107.45-45.11 97.89-45.11 84.11-42.38 84.11-31.98 95.03-34.13ZM136.76 0.78C147.68 0.78 153.99-3.45 153.99-11.77 153.99-18.79 150.22-21.64 146.25-23.21L146.25-23.46C150.15-25.22 152.75-27.95 152.75-33.67 152.75-41.8 146.71-45.89 136.76-45.89 126.56-45.89 120.64-41.8 120.64-33.67 120.64-27.69 122.98-25.16 126.43-23.46L126.43-23.21C122.98-21.64 119.41-18.91 119.41-11.83 119.41-3.45 125.78 0.78 136.76 0.78ZM136.76-27.69C133.12-27.69 131.3-29.51 131.3-32.37 131.3-35.49 133.45-36.66 136.76-36.66 140.08-36.66 142.09-35.3 142.09-32.37 142.09-29.51 140.4-27.69 136.76-27.69ZM136.76-8.84C132.8-8.84 130.65-10.08 130.65-13.2 130.65-16.64 133.12-18.53 136.76-18.53 140.21-18.53 142.81-16.64 142.81-13.2 142.81-10.08 140.66-8.84 136.76-8.84Z" transform="translate(-2.2100000381469727, 45.88999938964844)"></path></g> <!----> <!----> <!----> <!----> <!----> <!----> <!----></g></g> <!----></g></g><defs v-gra="od"></defs></svg>